PathFileType	4	(X/Y/Z)	s06c0201.trc
DataRate	CameraRate	NumFrames	NumMarkers	Units	OrigDataRate	OrigDataStartFrame	OrigNumFrames
200	200	7	49	mm	200	500	2000
Frame#	Time	racr			lacr			c7			jug			rlel			rdr			llel			ldr			s2			lic			ric			lasi			rasi			rpsi			lpsi			rgt			lgt			rth1			rth2			rth3			rth4			rlfc			rmfc			rsh1			rsh2			rsh3			rsh4			rlmal			rmmal			rcal			rtoe			rmt5			lth1			lth2			lth4			lth3			llfc			lmfc			llmal			lcal			lmt5			lsh1			lsh2			lsh3			lsh4			ltoe			SBIKE			LBIKE			RBIKE			
		X1	Y1	Z1	X2	Y2	Z2	X3	Y3	Z3	X4	Y4	Z4	X5	Y5	Z5	X6	Y6	Z6	X7	Y7	Z7	X8	Y8	Z8	X9	Y9	Z9	X10	Y10	Z10	X11	Y11	Z11	X12	Y12	Z12	X13	Y13	Z13	X14	Y14	Z14	X15	Y15	Z15	X16	Y16	Z16	X17	Y17	Z17	X18	Y18	Z18	X19	Y19	Z19	X20	Y20	Z20	X21	Y21	Z21	X22	Y22	Z22	X23	Y23	Z23	X24	Y24	Z24	X25	Y25	Z25	X26	Y26	Z26	X27	Y27	Z27	X28	Y28	Z28	X29	Y29	Z29	X30	Y30	Z30	X31	Y31	Z31	X32	Y32	Z32	X33	Y33	Z33	X34	Y34	Z34	X35	Y35	Z35	X36	Y36	Z36	X37	Y37	Z37	X38	Y38	Z38	X39	Y39	Z39	X40	Y40	Z40	X41	Y41	Z41	X42	Y42	Z42	X43	Y43	Z43	X44	Y44	Z44	X45	Y45	Z45	X46	Y46	Z46	X47	Y47	Z47	X48	Y48	Z48	X49	Y49	Z49	
500	2.5000	467.964439	1334.985902	-83.309439	467.516765	1344.357998	-394.485647	452.586332	1434.424966	-246.624473	468.136736	1264.953946	-233.319638	480.519880	1074.840627	24.100478	672.999174	947.183048	-52.249379	478.175678	1078.518009	-485.354364	673.010581	940.653045	-423.892032	-44.758184	1141.679048	-200.562839	110.285944	1140.337314	-382.474307	124.015321	1110.267988	-57.093971	136.399744	1088.068188	-347.283544	157.007766	1076.770427	-95.525828	-12.129544	1183.859151	-171.416455	-21.416936	1182.237086	-234.399303	92.377805	1020.482372	-33.415217	83.988114	1094.235640	-406.321780	162.522604	906.741551	-18.447345	217.233003	834.342801	-24.351621	227.191329	748.186730	-36.017248	247.887610	849.785850	-41.026376	252.654860	644.545093	-49.838877	239.790225	618.683297	-160.449577	240.324999	523.943610	-20.418018	249.476864	438.807161	-42.108042	219.503396	356.989187	-42.753821	269.310653	440.472420	-76.945728	203.631702	276.334332	-50.879073	237.203426	274.278939	-142.442829	138.857022	271.302036	-96.979270	383.692038	140.910887	-105.417204	288.322393	161.840044	-33.181785	158.162722	1017.857424	-429.360377	243.797050	1001.196131	-429.487615	259.961375	1031.145207	-413.709883	311.536864	942.351048	-435.408616	384.860039	849.485664	-415.480014	388.103704	834.992593	-298.423924	110.324145	604.765936	-380.712850	31.462466	612.997491	-330.549409	181.191541	488.430553	-405.495494	314.611939	765.838074	-425.523548	265.441290	699.687464	-398.125445	188.646433	657.548958	-398.528102	284.160147	687.418562	-366.224661	261.531311	452.460051	-350.255159	-158.682840	857.220598	-227.016112	-50.264076	80.283570	-420.021734	-50.242780	80.112277	-22.213559	
501	2.5050	467.575750	1334.586818	-84.509897	466.637878	1343.082260	-395.298068	451.811333	1433.269072	-247.982706	467.267026	1264.043130	-235.138189	480.408592	1074.801541	24.024028	672.973674	947.096786	-51.979890	477.162014	1077.305750	-486.117110	672.688960	940.624357	-423.855120	-45.789154	1140.827283	-199.509936	108.634014	1139.622517	-381.939086	123.664036	1109.714442	-56.460382	135.001383	1088.032112	-346.660901	157.829592	1074.183272	-98.523490	-13.195455	1183.030697	-170.425722	-22.544353	1181.560409	-233.367182	91.986387	1019.424102	-32.889001	82.151041	1094.146523	-405.063897	162.852084	905.668530	-19.035697	217.651113	833.445317	-25.396473	227.879437	747.249943	-37.431825	248.180942	848.819492	-42.382368	252.959835	643.797830	-51.622711	239.059650	617.901889	-161.871980	240.487452	523.483452	-21.597722	248.794426	438.330510	-43.147171	218.361152	356.620334	-43.168949	268.312733	439.742233	-78.104716	201.481841	275.891837	-50.859539	235.363862	273.603430	-142.122303	136.589921	271.430979	-96.768900	380.282403	138.777793	-105.439502	285.133261	160.646539	-33.199546	156.600598	1018.202257	-428.498326	242.404167	1002.067690	-429.162961	258.424117	1032.128098	-413.156659	310.388150	943.633115	-435.332217	384.690893	851.186604	-415.299885	388.420728	836.563379	-298.246510	111.516219	605.063806	-380.260710	32.490477	612.319945	-329.931999	183.901148	490.281318	-405.782704	314.788350	767.432212	-425.157421	266.169709	700.944761	-397.881378	189.648600	658.184953	-398.218802	285.071556	688.584995	-366.077582	264.934759	455.400783	-350.653312	-155.155143	856.658230	-224.979408	-50.262459	80.238122	-420.029409	-50.264083	80.103079	-22.202411	
502	2.5100	467.057348	1334.002692	-85.720980	465.802472	1341.630139	-396.195925	451.073274	1432.237633	-249.408313	466.569959	1262.542540	-234.790705	480.259007	1074.670823	23.964321	672.923121	946.953986	-51.811034	476.201841	1075.969215	-486.856129	672.351533	940.592866	-423.817844	-46.886424	1139.926008	-198.476564	106.894888	1138.905874	-381.429967	123.137826	1109.087775	-55.876261	133.498943	1087.933277	-345.854756	157.304521	1073.700508	-97.879556	-14.155721	1182.196068	-169.528547	-23.835586	1180.678093	-232.280625	91.572490	1018.340472	-32.396681	80.269030	1093.926683	-403.903307	163.222436	904.567513	-19.449418	217.516404	832.782674	-26.603990	228.798850	746.301761	-38.918626	248.587414	848.080192	-43.830118	253.643063	643.199134	-53.473518	238.457417	617.173475	-163.465600	240.856621	523.080070	-22.825370	248.376298	437.788233	-44.378902	217.451627	356.309053	-43.603989	267.466899	439.000593	-79.554507	199.318801	275.411719	-50.916562	232.805336	272.682877	-142.408167	134.289494	271.375090	-96.878053	376.899541	136.912975	-105.391268	281.922003	159.415372	-33.233102	155.000412	1018.391836	-427.652811	240.912277	1002.818320	-428.766195	256.836615	1032.908260	-412.612677	309.213618	944.764512	-435.129799	384.422405	852.742767	-415.027445	388.661958	838.120042	-297.941976	112.611362	605.228567	-379.733567	33.459374	611.231315	-329.229506	186.621391	491.993873	-405.970896	314.888554	768.897795	-424.737170	266.762913	701.739511	-397.405325	190.420214	658.987035	-398.290943	285.822707	689.549461	-365.893759	268.279071	458.351098	-351.144016	-158.683457	857.268086	-227.534080	-50.276145	80.220728	-420.026925	-50.241822	80.083071	-22.215932	
503	2.5150	466.612205	1333.334948	-86.894975	464.863109	1340.090557	-397.136732	450.190405	1430.811221	-250.668747	465.670185	1261.155007	-235.613292	480.090341	1074.441384	23.895622	673.175211	947.100316	-51.727955	475.238404	1074.610959	-487.680679	672.032080	940.552965	-423.803811	-48.020404	1138.929850	-197.434435	105.142803	1138.081401	-380.925162	122.557309	1108.486876	-55.019684	131.872871	1087.687889	-345.413305	156.717407	1073.286699	-97.162969	-15.243221	1181.245101	-168.570119	-25.173077	1179.682152	-231.241197	91.267320	1017.161334	-32.162257	78.403373	1093.527715	-402.895893	163.670293	903.407569	-19.902983	218.281337	831.944499	-27.675284	229.712005	745.544135	-40.306287	248.928045	847.385423	-45.490119	254.804078	642.657747	-55.287647	238.054091	616.526883	-165.246943	241.490966	522.802205	-24.229062	247.955466	437.349639	-45.741713	216.561952	356.014636	-44.219237	266.733565	438.238341	-81.085882	197.270021	275.169319	-50.962754	229.986188	271.887460	-143.007242	132.105210	271.410777	-97.074211	373.362522	134.860637	-105.479194	278.735285	158.358437	-33.298303	153.364421	1018.348643	-426.756326	239.380691	1003.339581	-428.252098	255.192589	1033.481857	-412.021690	307.943753	945.698747	-434.768951	384.074114	854.116631	-414.605542	388.729451	839.389091	-297.503355	113.556494	605.216742	-379.115126	34.237362	609.975389	-328.255371	189.218216	493.777503	-406.205301	314.945139	770.095670	-424.262339	267.294676	702.668495	-396.933504	191.255713	659.380383	-397.812170	286.583149	690.473178	-365.596525	271.697727	461.403021	-351.673280	-155.076232	856.669892	-225.250400	-50.286959	80.155341	-419.994130	-50.243252	80.103025	-22.214118	
504	2.5200	466.159551	1332.526289	-87.974928	463.968171	1338.603285	-398.009379	449.256795	1429.284342	-251.855596	466.695736	1260.812030	-234.424794	479.919663	1074.053851	23.813398	673.303679	946.990623	-51.790958	474.269555	1073.248362	-488.586164	671.677775	940.532587	-423.790689	-49.183116	1137.836571	-196.350473	103.312713	1137.030799	-380.450624	122.020734	1107.644047	-54.383690	130.229729	1087.352317	-344.907538	156.179238	1072.472755	-96.482343	-16.399329	1180.132218	-167.629232	-26.590295	1178.742271	-230.161727	91.002113	1015.909321	-31.940042	76.531444	1092.947113	-401.912507	164.222755	902.127434	-20.376265	219.141012	831.054309	-28.932868	230.783724	744.775415	-41.791166	249.510492	846.709771	-47.192000	256.380656	642.059003	-56.927437	238.547703	615.717338	-166.768061	242.239115	522.391035	-25.824292	247.833675	436.945029	-47.078069	215.861048	355.814392	-44.816356	266.047232	437.577581	-82.726087	195.138558	274.937980	-50.989005	226.706705	270.774905	-143.723398	129.939723	271.590970	-97.143401	369.869906	132.916515	-105.520762	275.495285	157.319221	-33.426469	151.747271	1018.174979	-425.851422	237.849153	1003.671921	-427.696549	253.542906	1033.898983	-411.428277	306.725138	946.436212	-434.277718	383.668628	855.299636	-414.097478	388.663473	840.736794	-296.931073	114.360415	605.091192	-378.504409	35.021789	608.401245	-327.489061	191.850954	495.427044	-406.365244	314.927748	771.088950	-423.646057	267.724680	703.320305	-396.432265	191.908421	659.605262	-397.303762	287.074178	691.215943	-365.137168	275.115209	464.529694	-352.238193	-155.217497	856.650070	-225.298315	-50.296770	80.126501	-419.977234	-50.263930	80.059855	-22.235174	
505	2.5250	465.553274	1331.584963	-89.249925	463.061358	1336.969722	-398.936505	448.290024	1427.671932	-252.976601	465.818906	1259.281772	-235.114108	479.741174	1073.555018	23.709273	673.245450	946.721097	-51.882910	473.322659	1071.801296	-489.417256	671.506685	940.377162	-423.824527	-50.448532	1136.596042	-195.158782	101.475894	1136.022797	-379.865146	121.358484	1106.832800	-53.738836	128.400650	1086.963486	-344.010603	155.623962	1071.751675	-96.014578	-17.598710	1179.029928	-166.617140	-28.005096	1177.614004	-229.048372	90.669012	1014.627856	-31.542371	74.628582	1092.071853	-401.087501	164.877362	900.885985	-20.918551	220.043116	830.194062	-30.359618	232.007870	743.975905	-43.463984	250.064856	845.973764	-49.133502	257.321520	641.482182	-59.645700	238.359915	615.068427	-168.783726	242.995403	522.104611	-27.673568	247.623388	436.508067	-48.753992	215.078687	355.729271	-45.526461	265.370154	436.797651	-84.480375	193.059398	274.792220	-51.079238	224.879220	270.216524	-143.436673	127.613300	271.888201	-97.082743	366.256281	131.097682	-105.730587	272.166266	156.330173	-33.485443	150.116374	1017.770944	-424.893492	236.331036	1003.745494	-426.972191	251.884361	1034.171524	-410.840328	305.421252	946.872143	-433.652912	383.149463	856.329593	-413.487962	388.371335	841.916796	-296.263958	115.132569	604.812961	-377.798363	35.747506	606.653861	-326.472106	194.461968	497.207830	-406.587927	314.822017	771.927890	-422.972419	268.024463	703.891569	-395.799435	192.507830	659.618315	-396.582832	287.499445	691.746705	-364.464782	278.464218	467.666343	-352.809682	-159.380346	857.200975	-227.667009	-50.275103	80.050704	-419.973303	-50.242014	80.055299	-22.226810	
506	2.5300	464.400081	1330.109498	-91.137751	462.093356	1335.313800	-399.840982	447.310304	1425.932619	-254.067826	464.775716	1257.619120	-235.884490	479.616270	1072.912798	23.535677	673.148968	946.372969	-51.986135	472.357827	1070.300047	-490.308444	671.080692	940.419344	-423.805366	-51.749075	1135.294568	-194.007353	99.534546	1134.977728	-379.324917	120.770583	1105.855084	-53.102868	126.573657	1086.525545	-343.092895	154.948148	1071.115970	-95.171823	-18.835718	1177.853216	-165.650081	-29.500854	1176.372601	-227.932758	90.364864	1013.213605	-31.129610	72.728629	1091.227402	-400.307095	165.613562	899.553832	-21.590839	221.096457	829.221754	-32.008525	233.389845	743.210901	-45.270297	250.772080	845.238817	-51.140649	259.090356	640.905041	-62.081570	238.187960	614.477995	-170.965263	243.920995	521.786186	-29.635641	247.464210	436.228048	-50.335253	214.162486	355.637482	-46.321509	264.587525	436.160412	-86.429841	190.875525	274.560875	-51.109221	222.847814	269.813991	-143.560644	125.174586	272.112922	-96.966558	362.630851	129.464928	-106.019200	268.926918	155.461329	-33.635915	148.490540	1017.214996	-423.965941	234.816713	1003.685596	-426.271249	250.206665	1034.208866	-410.199924	304.261305	947.193169	-432.926878	382.575526	857.147871	-412.836065	387.970174	843.006457	-295.585330	115.857846	604.371709	-377.085638	36.383697	604.697094	-325.464510	196.951894	498.734188	-406.675165	314.599041	772.670917	-422.227607	268.285123	704.167316	-395.140393	193.044026	659.697733	-395.983322	287.902686	692.243602	-363.766644	281.739257	470.682163	-353.348283	-155.389439	856.637406	-225.344549	-50.286289	80.030385	-419.951145	-50.283630	80.041094	-22.202017	
